<?xml version="1.0" standalone="no"?>
<!DOCTYPE svg PUBLIC "-//W3C//DTD SVG 20010904//EN"
 "http://www.w3.org/TR/2001/REC-SVG-20010904/DTD/svg10.dtd">
<svg version="1.0" xmlns="http://www.w3.org/2000/svg"
 width="300.000000pt" height="300.000000pt" viewBox="0 0 300.000000 300.000000"
 preserveAspectRatio="xMidYMid meet">
<metadata>
Created by potrace 1.11, written by Peter Selinger 2001-2013
</metadata>
<g transform="translate(0.000000,300.000000) scale(0.100000,-0.100000)"
fill="#000000" stroke="none">
<path d="M1498 2993 l-38 -4 0 -333 0 -333 -61 -7 c-270 -31 -530 -225 -644
-483 -30 -66 -65 -202 -65 -250 l0 -33 -334 0 -334 0 -4 -45 -3 -45 335 -2
334 -3 13 -73 c15 -90 37 -158 76 -237 35 -71 103 -169 146 -209 16 -16 28
-33 25 -38 -3 -5 -2 -7 3 -6 4 2 33 -16 63 -39 103 -77 236 -134 372 -156 l73
-13 0 -332 0 -332 58 0 57 0 0 329 c0 254 -3 330 -12 334 -7 3 -3 6 10 6 47 2
178 33 239 58 126 50 260 152 339 256 25 34 50 61 55 60 5 -2 13 7 19 20 11
21 10 21 -4 3 -18 -23 -21 -14 -5 15 5 11 15 16 21 13 7 -4 8 -3 4 4 -4 7 -2
20 4 29 10 16 11 16 5 -2 -14 -45 14 4 39 67 32 82 57 218 43 236 -7 9 60 12
332 12 l341 0 0 48 0 47 -342 -3 c-189 -1 -338 1 -332 5 16 11 1 108 -30 209
-72 224 -263 424 -489 509 -37 13 -71 24 -75 23 -14 -4 -186 26 -174 30 9 3
12 89 12 338 0 312 -1 334 -17 332 -10 -1 -35 -3 -55 -5z m-40 -898 l-3 -95
58 0 57 0 0 99 c0 70 -4 101 -12 104 -34 12 5 13 72 1 86 -15 203 -61 193 -77
-3 -6 -1 -7 5 -3 16 10 74 -22 66 -36 -4 -6 -3 -8 4 -5 14 9 98 -58 149 -119
84 -101 148 -243 160 -355 l6 -59 -106 0 -105 0 -4 -45 -3 -45 107 0 108 0 0
-33 c0 -50 -37 -171 -74 -245 -86 -168 -233 -293 -421 -357 -46 -16 -186 -33
-157 -19 8 4 12 37 12 111 l0 106 -31 -7 c-17 -3 -42 -6 -55 -6 -24 0 -24 -1
-24 -103 0 -57 -2 -106 -5 -109 -8 -7 -117 11 -130 22 -7 6 -15 7 -19 3 -4 -4
-10 -3 -14 2 -4 6 -46 29 -93 53 -191 94 -328 274 -375 489 -9 45 -21 80 -26
77 -4 -3 -8 0 -8 5 0 7 42 11 120 11 l120 0 0 48 0 48 -117 -1 c-95 0 -117 3
-120 15 -4 12 -3 12 5 1 7 -9 13 7 21 55 7 38 24 96 37 129 36 87 38 95 10 45
-14 -25 -25 -41 -26 -37 0 15 61 129 67 123 3 -3 0 -14 -8 -23 -13 -16 -12
-17 4 -4 10 8 15 21 12 30 -3 11 11 36 37 67 119 139 256 219 423 248 58 11
71 10 78 -1 5 -7 7 -56 5 -108z"/>
</g>
</svg>
