<?xml version="1.0" standalone="no"?>
<!DOCTYPE svg PUBLIC "-//W3C//DTD SVG 20010904//EN"
 "http://www.w3.org/TR/2001/REC-SVG-20010904/DTD/svg10.dtd">
<svg version="1.0" xmlns="http://www.w3.org/2000/svg"
 width="512.000000pt" height="512.000000pt" viewBox="0 0 512.000000 512.000000"
 preserveAspectRatio="xMidYMid meet">
<metadata>
Created by potrace 1.11, written by Peter Selinger 2001-2013
</metadata>
<g transform="translate(0.000000,512.000000) scale(0.100000,-0.100000)"
fill="#000000" stroke="none">
<path d="M1333 4596 c-104 -34 -177 -98 -222 -196 -34 -74 -36 -201 -4 -272
114 -253 453 -289 607 -65 156 226 6 531 -267 544 -43 1 -89 -3 -114 -11z"/>
<path d="M3468 4486 c-94 -25 -166 -87 -209 -183 -87 -190 30 -413 237 -452
152 -29 309 61 364 207 30 78 24 185 -12 257 -72 140 -228 210 -380 171z"/>
<path d="M2405 3915 c-5 -2 -22 -6 -36 -9 -36 -8 -92 -63 -113 -113 -14 -32
-17 -57 -14 -101 11 -112 58 -159 188 -186 69 -14 305 -59 375 -71 17 -2 41
-7 55 -10 14 -3 50 -9 80 -15 30 -6 64 -12 75 -14 11 -2 58 -11 105 -20 47 -9
95 -18 107 -20 11 -3 43 -8 70 -12 26 -5 50 -9 53 -9 3 -1 27 -5 53 -9 45 -8
50 -12 73 -58 14 -27 64 -88 112 -137 146 -147 213 -227 300 -358 54 -80 145
-252 187 -353 37 -89 38 -86 -40 -96 -19 -2 -85 -17 -147 -33 -473 -123 -882
-373 -1173 -717 -86 -101 -88 -105 -143 -186 -55 -80 -70 -123 -66 -181 5 -58
52 -137 102 -172 37 -26 53 -30 106 -30 76 0 98 16 179 130 74 105 114 152
217 255 119 119 159 153 285 235 148 97 297 173 420 213 17 6 39 13 50 17 11
4 -66 -77 -170 -181 -153 -152 -193 -197 -203 -229 -44 -152 134 -297 291
-236 29 11 55 33 202 176 284 275 448 405 633 501 155 81 226 177 236 319 12
162 -197 687 -370 928 -19 26 -34 50 -34 53 0 21 -218 282 -330 395 -167 169
-208 193 -325 194 -72 0 -88 -4 -147 -34 -49 -24 -74 -31 -95 -27 -15 4 -41 9
-58 12 -42 7 -135 23 -165 29 -190 36 -331 62 -430 80 -19 3 -116 21 -215 40
-187 35 -263 46 -280 40z"/>
<path d="M1077 3854 c-1 -1 -27 -4 -57 -8 -148 -16 -292 -69 -416 -153 -157
-107 -329 -338 -350 -471 -24 -150 161 -284 277 -201 17 12 50 61 81 122 70
135 161 230 272 283 42 20 79 35 81 32 2 -2 -3 -33 -11 -68 -9 -36 -17 -72
-19 -80 -2 -8 -13 -53 -24 -100 -12 -47 -23 -94 -25 -105 -2 -11 -9 -40 -16
-65 -7 -25 -14 -52 -15 -60 -2 -8 -31 -139 -64 -290 -33 -151 -67 -290 -76
-308 -9 -17 -20 -58 -25 -90 -7 -54 -39 -179 -132 -522 -21 -80 -41 -152 -43
-160 -13 -55 -78 -296 -81 -301 -2 -3 -6 -19 -9 -35 -3 -16 -14 -60 -24 -99
-11 -38 -37 -140 -60 -225 -22 -85 -47 -177 -56 -205 -20 -68 -19 -128 4 -173
80 -155 308 -157 374 -4 9 20 44 143 78 272 33 129 72 276 86 325 14 50 26 97
28 105 2 8 22 85 45 170 22 85 43 162 44 170 11 45 79 295 81 298 1 2 49 -20
106 -48 126 -61 224 -133 286 -208 45 -56 108 -174 118 -223 7 -29 7 -133 1
-175 -15 -101 -71 -251 -138 -369 -75 -132 -87 -200 -47 -280 39 -78 113 -127
195 -128 95 -2 136 44 248 275 146 303 189 556 136 794 -55 244 -235 471 -495
624 -51 31 -73 50 -70 60 2 8 34 146 70 305 36 160 77 337 91 395 14 58 26
113 27 123 2 23 20 22 43 -4 28 -31 148 -111 230 -152 68 -34 274 -111 274
-102 0 3 11 0 24 -5 13 -5 44 -12 67 -15 24 -3 61 -11 81 -16 65 -17 189 -18
228 -2 139 57 169 268 47 326 -18 9 -60 19 -92 22 -116 12 -225 32 -310 57
-256 74 -401 204 -474 423 -35 107 -61 154 -106 189 -77 61 -125 74 -280 75
-66 1 -140 2 -163 3 -24 2 -44 2 -45 2z"/>
<path d="M2856 3160 c-55 -5 -59 -7 -62 -32 -3 -28 8 -34 58 -29 10 1 31 -20
53 -54 35 -52 111 -125 131 -125 5 0 17 -7 27 -14 17 -13 17 -17 2 -62 -8 -27
-16 -63 -18 -80 -1 -24 -14 -41 -57 -75 -61 -50 -115 -141 -128 -219 -11 -64
-6 -79 26 -77 24 2 27 7 35 56 13 93 79 184 172 239 7 4 15 34 18 69 3 42 14
79 35 117 16 31 27 58 24 60 -4 2 -30 11 -59 20 -68 22 -135 83 -170 154 l-29
57 -58 -5z"/>
</g>
</svg>
