<?xml version="1.0" standalone="no"?>
<!DOCTYPE svg PUBLIC "-//W3C//DTD SVG 20010904//EN"
 "http://www.w3.org/TR/2001/REC-SVG-20010904/DTD/svg10.dtd">
<svg version="1.0" xmlns="http://www.w3.org/2000/svg"
 width="256.000000pt" height="256.000000pt" viewBox="0 0 256.000000 256.000000"
 preserveAspectRatio="xMidYMid meet">
<metadata>
Created by potrace 1.11, written by Peter Selinger 2001-2013
</metadata>
<g transform="translate(0.000000,256.000000) scale(0.100000,-0.100000)"
fill="#000000" stroke="none">
<path d="M739 2546 c-163 -57 -233 -194 -252 -492 l-3 -51 54 3 c54 2 105 -14
146 -46 35 -28 68 -119 68 -192 0 -40 5 -68 12 -71 29 -11 139 3 169 22 67 41
67 42 67 419 0 214 -4 350 -11 370 -7 20 -20 33 -37 38 -48 13 -176 13 -213 0z"/>
<path d="M1257 2544 c-1 -1 -18 -4 -37 -7 -44 -5 -89 -28 -115 -57 -19 -21
-20 -37 -21 -416 -1 -440 -1 -440 66 -478 54 -30 200 -32 260 -3 79 39 78 32
77 482 -2 378 -3 394 -22 415 -31 34 -75 53 -143 60 -34 3 -64 5 -65 4z"/>
<path d="M1685 2341 c-44 -11 -71 -28 -94 -57 -20 -26 -21 -37 -21 -429 l0
-402 25 -27 c38 -41 89 -58 176 -58 55 0 90 6 122 20 82 36 79 20 79 462 0
278 -3 398 -11 418 -19 46 -79 73 -169 78 -42 2 -90 0 -107 -5z"/>
<path d="M2146 2075 c-48 -17 -74 -41 -84 -80 -5 -17 -8 -201 -8 -411 1 -344
3 -383 19 -407 56 -86 288 -91 362 -7 19 21 20 36 20 432 l0 410 -32 28 c-18
16 -49 34 -70 39 -53 15 -160 13 -207 -4z"/>
<path d="M465 1900 c-34 -8 -140 -68 -200 -114 -70 -53 -186 -179 -208 -226
-28 -63 -34 -171 -12 -245 21 -73 47 -135 57 -135 5 0 8 -4 8 -9 0 -49 491
-742 640 -904 80 -86 103 -129 98 -180 -3 -23 -8 -49 -12 -58 -8 -18 -3 -18
993 -22 l424 -2 36 120 c20 66 49 147 65 180 57 122 117 326 142 481 3 20 7
44 9 53 7 39 15 100 20 156 l6 60 -24 -35 c-14 -20 -49 -49 -78 -65 -52 -29
-60 -30 -174 -30 -103 0 -126 3 -160 22 -84 45 -123 110 -123 206 0 32 -2 60
-5 63 -3 3 -18 -1 -34 -9 -63 -33 -194 -40 -285 -16 -86 22 -163 114 -160 189
l2 38 -58 -24 c-50 -20 -71 -23 -163 -21 -94 3 -111 6 -151 30 -54 31 -95 77
-104 115 -10 42 -13 43 -57 20 -32 -16 -62 -22 -125 -23 -45 -1 -85 -4 -88 -7
-6 -7 -11 -36 -18 -113 -12 -116 -28 -168 -67 -204 -30 -28 -61 -27 -96 3
l-28 24 21 24 c49 53 94 174 109 293 9 75 9 176 0 215 -11 48 -51 106 -92 132
-40 24 -64 28 -108 18z"/>
</g>
</svg>
